<?xml version="1.0" encoding="UTF-8" standalone="no"?>
<svg
   width="560"
   height="560"
   viewBox="0 0 560 560"
   version="1.1"
   id="svg2"
   sodipodi:docname="bcl-v3-shadow-border.svg"
   inkscape:version="1.4.2 (ebf0e940d0, 2025-05-08)"
   xmlns:inkscape="http://www.inkscape.org/namespaces/inkscape"
   xmlns:sodipodi="http://sodipodi.sourceforge.net/DTD/sodipodi-0.dtd"
   xmlns="http://www.w3.org/2000/svg"
   xmlns:svg="http://www.w3.org/2000/svg">
  <sodipodi:namedview
     id="namedview2"
     pagecolor="#ffffff"
     bordercolor="#000000"
     borderopacity="0.25"
     inkscape:showpageshadow="2"
     inkscape:pageopacity="0.0"
     inkscape:pagecheckerboard="0"
     inkscape:deskcolor="#d1d1d1"
     inkscape:zoom="1.0474466"
     inkscape:cx="245.35856"
     inkscape:cy="350.37584"
     inkscape:window-width="1920"
     inkscape:window-height="1139"
     inkscape:window-x="0"
     inkscape:window-y="0"
     inkscape:window-maximized="1"
     inkscape:current-layer="svg2" />
  <defs
     id="defs1">
    <filter
       id="blur"
       x="-0.0621791"
       y="-0.062185058"
       width="1.1243582"
       height="1.1243701">
      <feGaussianBlur
         stdDeviation="10"
         id="feGaussianBlur1" />
    </filter>
    <path
       id="shape"
       d="m 449.13763,335.7306 a 79,79 0 0 1 0.7,-112.5 80,80 0 0 0 -113.1,-113.099998 79,79 0 0 1 -112.6,0.7 80.7,80.7 0 0 0 -113.399996,-1.1 c -31.5999999,31.1 -31.5999999,82.099998 -0.3,113.499998 31.3,31.4 30.5,82.7 0.7,112.5 a 80.7,80.7 0 0 0 -1.1,113.4 80,80 0 0 0 113.499996,0.4 79,79 0 0 1 113.2,0 80,80 0 0 0 113.5,-0.4 c 31,-31.4 30,-82.2 -1.1,-113.4 z" />
  </defs>
  <rect
     width="560"
     height="560"
     fill="white"
     id="rect1" />
  <!-- Shadow: same rotation as shape, but shifted down by 8px in screen space via translate -->
  <g
     transform="translate(0, 8)"
     filter="url(#blur)"
     opacity="0.8"
     id="g1">
    <use
       href="#shape"
       style="fill:black"
       id="use1">
      <animateTransform
         attributeName="transform"
         begin="0s"
         dur="20s"
         type="rotate"
         from="0 280 280"
         to="360 280 280"
         repeatCount="indefinite" />
    </use>
  </g>
  <!-- Shape: rotating -->
  <use
     href="#shape"
     style="fill:#0064c8;stroke:#003296;stroke-width:8;stroke-opacity:1"
     id="use2">
    <animateTransform
       attributeName="transform"
       begin="0s"
       dur="20s"
       type="rotate"
       from="0 280 280"
       to="360 280 280"
       repeatCount="indefinite" />
  </use>
</svg>
