<svg width="560" height="560" viewBox="0 0 560 560" xmlns="http://www.w3.org/2000/svg">
  <defs>
    <filter id="blur" x="-30%" y="-30%" width="160%" height="160%">
      <feGaussianBlur stdDeviation="10"/>
    </filter>
    <path id="shape" d="m 449.13763,335.7306 a 79,79 0 0 1 0.7,-112.5 80,80 0 0 0 -113.1,-113.099998 79,79 0 0 1 -112.6,0.7 80.7,80.7 0 0 0 -113.399996,-1.1 c -31.5999999,31.1 -31.5999999,82.099998 -0.3,113.499998 31.3,31.4 30.5,82.7 0.7,112.5 a 80.7,80.7 0 0 0 -1.1,113.4 80,80 0 0 0 113.499996,0.4 79,79 0 0 1 113.2,0 80,80 0 0 0 113.5,-0.4 c 31,-31.4 30,-82.2 -1.1,-113.4 z"/>
  </defs>
  <rect width="560" height="560" fill="white"/>
  <!-- Shadow: same rotation as shape, but shifted down by 8px in screen space via translate -->
  <g transform="translate(0, 8)" filter="url(#blur)" opacity="0.8">
    <use href="#shape" style="fill:black">
      <animateTransform attributeName="transform" begin="0s" dur="10s" type="rotate"
        from="0 280 280" to="360 280 280" repeatCount="indefinite"/>
    </use>
  </g>
  <!-- Shape: rotating -->
  <use href="#shape" style="fill:#0064c8">
    <animateTransform attributeName="transform" begin="0s" dur="10s" type="rotate"
      from="0 280 280" to="360 280 280" repeatCount="indefinite"/>
  </use>
</svg>
