<?xml version="1.0" encoding="UTF-8" standalone="no"?>
<svg
   viewBox="0 0 386 386"
   version="1.1"
   id="svg1"
   sodipodi:docname="bcl-v2.svg"
   width="386"
   height="386"
   inkscape:version="1.4.2 (ebf0e940d0, 2025-05-08)"
   xmlns:inkscape="http://www.inkscape.org/namespaces/inkscape"
   xmlns:sodipodi="http://sodipodi.sourceforge.net/DTD/sodipodi-0.dtd"
   xmlns="http://www.w3.org/2000/svg"
   xmlns:svg="http://www.w3.org/2000/svg">
  <sodipodi:namedview
     id="namedview1"
     pagecolor="#ffffff"
     bordercolor="#000000"
     borderopacity="0.25"
     inkscape:showpageshadow="2"
     inkscape:pageopacity="0.0"
     inkscape:pagecheckerboard="0"
     inkscape:deskcolor="#d1d1d1"
     inkscape:zoom="1.6508336"
     inkscape:cx="155.67893"
     inkscape:cy="225.94646"
     inkscape:window-width="1920"
     inkscape:window-height="1139"
     inkscape:window-x="0"
     inkscape:window-y="0"
     inkscape:window-maximized="1"
     inkscape:current-layer="svg1" />
  <defs
     id="defs1" />
  <path
     d="m 362.13763,248.7306 a 79,79 0 0 1 0.7,-112.5 80,80 0 0 0 -113.1,-113.099998 79,79 0 0 1 -112.6,0.7 80.7,80.7 0 0 0 -113.399996,-1.1 c -31.5999999,31.1 -31.5999999,82.099998 -0.3,113.499998 31.3,31.4 30.5,82.7 0.7,112.5 a 80.7,80.7 0 0 0 -1.1,113.4 80,80 0 0 0 113.499996,0.4 79,79 0 0 1 113.2,0 80,80 0 0 0 113.5,-0.4 c 31,-31.4 30,-82.2 -1.1,-113.4 z"
     fill="#ff0000"
     id="path1"
     style="fill:#0064c8;fill-opacity:1" />
</svg>
