<?xml version="1.0" encoding="UTF-8" standalone="no"?>
<!-- Created with Inkscape (http://www.inkscape.org/) -->

<svg
   width="80mm"
   height="80mm"
   viewBox="0 0 80 80"
   version="1.1"
   id="svg1"
   inkscape:version="1.4.2 (ebf0e940d0, 2025-05-08)"
   sodipodi:docname="drawing.svg"
   xmlns:inkscape="http://www.inkscape.org/namespaces/inkscape"
   xmlns:sodipodi="http://sodipodi.sourceforge.net/DTD/sodipodi-0.dtd"
   xmlns="http://www.w3.org/2000/svg"
   xmlns:svg="http://www.w3.org/2000/svg">
  <sodipodi:namedview
     id="namedview1"
     pagecolor="#ffffff"
     bordercolor="#000000"
     borderopacity="0.25"
     inkscape:showpageshadow="2"
     inkscape:pageopacity="0.0"
     inkscape:pagecheckerboard="0"
     inkscape:deskcolor="#d1d1d1"
     inkscape:document-units="mm"
     inkscape:zoom="1.5152417"
     inkscape:cx="91.074582"
     inkscape:cy="132.65211"
     inkscape:window-width="990"
     inkscape:window-height="1139"
     inkscape:window-x="20"
     inkscape:window-y="20"
     inkscape:window-maximized="0"
     inkscape:current-layer="layer1"
     showgrid="true">
    <inkscape:grid
       id="grid1"
       units="mm"
       originx="0"
       originy="0"
       spacingx="0.99999997"
       spacingy="0.99999997"
       empcolor="#0099e5"
       empopacity="0.30196078"
       color="#0099e5"
       opacity="0.14901961"
       empspacing="5"
       enabled="true"
       visible="true" />
  </sodipodi:namedview>
  <defs
     id="defs1" />
  <g
     inkscape:label="Layer 1"
     inkscape:groupmode="layer"
     id="layer1">
    <path
       id="path1"
       style="fill:#0463ca;fill-opacity:1;stroke:none;stroke-width:7.834;stroke-dasharray:none;stroke-opacity:1"
       d="M 16.720739,8.0048948e-4 C 12.322588,-0.04222544 8.0844081,1.6484787 4.9235221,4.7069725 c -6.55,6.4499995 -6.549945,17.0198295 -0.059945,23.5298295 6.4900019,6.51 6.3198619,17.140024 0.149862,23.320024 -6.4985311,6.452876 -6.6010249,16.931437 -0.22996,23.510194 6.4609869,6.545263 17.0148799,6.580972 23.5200099,0.07958 6.426626,-6.605972 17.033444,-6.605972 23.46007,0 6.50513,6.501392 17.059023,6.465683 23.52001,-0.07958 6.43,-6.51 6.22004,-17.040194 -0.22996,-23.510194 C 68.597648,45.100972 68.665072,34.609049 75.203469,28.236802 81.516185,21.736767 81.441564,11.372833 75.035921,4.9643642 68.630277,-1.4441046 58.266377,-1.5232952 51.763559,4.7865545 45.391679,11.352316 34.879229,11.420046 28.423379,4.9369325 25.323005,1.8172224 21.118813,0.04390899 16.720739,8.0048948e-4 Z M 48.013399,27.216709 c 2.419079,-5e-5 4.380142,1.961016 4.38009,4.380095 v 16.030029 c 5.2e-5,2.419079 -1.961011,4.380145 -4.38009,4.380095 h -16.01969 c -2.419083,5.5e-5 -4.380152,-1.961012 -4.3801,-4.380095 V 31.606622 c 2.34e-4,-2.418881 1.961219,-4.379632 4.3801,-4.379577 8.00629,2.273721 16.01969,0 16.01969,0 z"
       sodipodi:nodetypes="ccscccccccsccccccccccccc" />
  </g>
</svg>
